<?xml version="1.0" encoding="utf-8"?>
<!-- Svg Vector Icons : http://www.onlinewebfonts.com/icon -->
<!DOCTYPE svg PUBLIC "-//W3C//DTD SVG 1.1//EN" "http://www.w3.org/Graphics/SVG/1.1/DTD/svg11.dtd">
<svg version="1.1" xmlns="http://www.w3.org/2000/svg" xmlns:xlink="http://www.w3.org/1999/xlink" x="0px" y="0px" viewBox="0 0 1000 1000" enable-background="new 0 0 1000 1000" xml:space="preserve">
<metadata> Svg Vector Icons : http://www.onlinewebfonts.com/icon </metadata>
<g><g transform="translate(0.000000,511.000000) scale(0.100000,-0.100000)"><path d="M1046.5,3480.2c-427.5-91.5-774.3-416.9-908.3-848.7C102.1,2510.3,100,2374.1,100,110.9c0-2263.2,2.1-2399.3,38.3-2520.6c131.9-427.6,487.1-763.6,901.9-850.8c219.1-46.8,7687.3-46.8,7908.5,0c234,48.9,402,144.6,587.1,327.6c174.4,174.4,270.1,338.2,327.6,565.8c48.9,189.3,48.9,4766.8,0,4956.1c-57.4,227.6-153.1,391.4-327.6,565.8c-182.9,182.9-355.2,278.6-593.4,327.6C8731.7,3527,1255,3527,1046.5,3480.2z M7036.4,2395.4c144.7-68.1,136.2,65.9,136.2-2282.4c0-1329.4-8.5-2146.2-21.3-2180.3c-10.6-29.8-51.1-74.5-89.3-97.8c-70.2-42.5-102.1-42.5-2905.6-38.3l-2837.5,6.4l-61.7,70.2l-61.7,68.1V106.7c0,1965.4,2.1,2169.6,34,2214.3c78.7,110.6-40.4,106.4,2950.3,108.5C6713.1,2429.4,6970.5,2427.3,7036.4,2395.4z M8767.9,2348.6c361.6-180.8,416.9-680.7,102.1-948.7c-91.5-80.8-251-140.4-368-140.4c-270.1,0-521.1,217-572.2,495.6c-48.9,272.3,144.7,565.8,427.6,644.5C8491.3,2435.8,8623.2,2420.9,8767.9,2348.6z M8759.3,625.7c102.1-53.2,234-191.4,280.8-299.9c46.8-112.7,42.5-331.8-10.6-450.9c-53.2-121.2-176.5-244.6-291.4-297.8c-108.5-48.9-344.6-53.2-450.9-8.5c-221.2,91.5-361.6,304.2-357.4,542.4c2.1,163.8,40.4,261.6,148.9,382.9c78.7,85.1,157.4,138.3,263.8,172.3C8433.9,695.9,8665.8,674.6,8759.3,625.7z M8716.8-1090.9c302.1-125.5,446.7-493.5,306.3-782.8c-59.6-125.5-206.3-257.4-334-299.9c-436.1-148.9-870,259.5-742.3,695.6c76.6,261.6,282.9,419,546.6,419C8576.4-1059,8674.3-1073.9,8716.8-1090.9z"/><path d="M1842.1,1836c-80.8-48.9-125.5-163.8-108.5-282.9c12.8-102.1,80.8-180.8,182.9-210.6c51-14.9,818.9-19.1,2314.3-14.9c2229.2,6.4,2237.7,6.4,2297.3,51.1c134,97.8,136.1,331.8,4.3,442.4l-65.9,55.3H4188.3C1978.2,1876.4,1905.9,1874.3,1842.1,1836z"/></g></g>
</svg>