<?xml version="1.0" encoding="utf-8"?>
<!-- Generator: Adobe Illustrator 16.0.4, SVG Export Plug-In . SVG Version: 6.00 Build 0)  -->
<!DOCTYPE svg PUBLIC "-//W3C//DTD SVG 1.1//EN" "http://www.w3.org/Graphics/SVG/1.1/DTD/svg11.dtd">
<svg version="1.1" id="Layer_1" xmlns="http://www.w3.org/2000/svg" xmlns:xlink="http://www.w3.org/1999/xlink" x="0px" y="0px"
	 width="1854.186px" height="294.029px" viewBox="0 0 1854.186 294.029" enable-background="new 0 0 1854.186 294.029"
	 xml:space="preserve">
<g>
	<g transform="translate(0.000000,511.000000) scale(0.100000,-0.100000)">
		<path d="M2293.843,4100.803c-61.24-13.095-110.908-59.697-130.093-121.543c-5.176-17.363-5.479-36.875-5.479-361.025
			c0-324.16,0.303-343.652,5.488-361.025c18.887-61.24,69.761-109.355,129.17-121.855c31.387-6.699,1101.035-6.699,1132.724,0
			c33.516,7.002,57.578,20.713,84.087,46.924c24.98,24.971,38.687,48.438,46.914,81.035c7.007,27.109,7.007,682.734,0,709.854
			c-8.223,32.598-21.929,56.064-46.914,81.035c-26.196,26.201-50.879,39.902-84.995,46.914
			C3394.57,4107.512,2323.706,4107.512,2293.843,4100.803z M3151.758,3945.442c20.723-9.756,19.502,9.434,19.502-326.914
			c0-190.41-1.221-307.393-3.052-312.275c-1.509-4.268-7.314-10.674-12.788-14.014c-10.049-6.084-14.619-6.084-416.167-5.479
			l-406.401,0.918l-8.833,10.049l-8.838,9.756v310.146c0,281.504,0.293,310.742,4.868,317.148
			c11.274,15.85-5.786,15.244,422.559,15.547C3105.449,3950.305,3142.324,3950.002,3151.758,3945.442z M3399.75,3938.733
			c51.802-25.898,59.712-97.5,14.629-135.879c-13.11-11.572-35.962-20.117-52.715-20.117c-38.682,0-74.634,31.094-81.943,70.986
			c-7.007,39.004,20.718,81.045,61.23,92.314C3360.141,3951.213,3379.033,3949.094,3399.75,3938.733z M3398.52,3691.955
			c14.619-7.607,33.516-27.402,40.215-42.939c6.714-16.152,6.094-47.529-1.514-64.58c-7.617-17.363-25.269-35.039-41.738-42.656
			c-15.542-7.012-49.355-7.617-64.58-1.23c-31.68,13.115-51.797,43.574-51.182,77.695c0.303,23.467,5.781,37.471,21.313,54.844
			c11.27,12.188,22.544,19.814,37.788,24.678C3351.914,3702.014,3385.127,3698.967,3398.52,3691.955z M3392.436,3446.096
			c43.266-17.979,63.974-70.684,43.867-112.109c-8.54-17.979-29.551-36.875-47.837-42.949
			c-62.466-21.338-124.604,37.158-106.318,99.619c10.967,37.461,40.522,60.01,78.286,60.01
			C3372.324,3450.666,3386.347,3448.537,3392.436,3446.096z"/>
		<path d="M2407.788,3865.315c-11.572-7.002-17.969-23.457-15.537-40.518c1.826-14.619,11.577-25.898,26.196-30.166
			c7.31-2.139,117.285-2.734,331.47-2.139c319.282,0.928,320.498,0.928,329.033,7.324c19.194,14.014,19.497,47.529,0.62,63.369
			l-9.438,7.91h-326.309C2427.285,3871.096,2416.919,3870.803,2407.788,3865.315z"/>
	</g>
</g>
<circle fill="none" stroke="#231F20" stroke-width="20" stroke-miterlimit="10" cx="284.973" cy="147.968" r="101.464"/>
<g enable-background="new    ">
	<path d="M436.112,142.562l14.172-88.359h32.533l10.846,37.308c0.163,0.818,0.408,2.128,0.738,3.927
		c0.328,1.801,0.576,3.519,0.74,5.154v3.068l0.734-6.873c0.326-2.617,0.654-4.375,0.98-5.276l10.656-37.308h32.452l14.084,88.359
		H522.14l-2.823-34.116c0-1.473,0-2.884,0-4.234c0-1.35,0-2.679,0-3.988c0-0.816,0-1.431,0-1.841v-7.118l-0.353,2.455l-0.943,4.908
		l-1.649,8.836v0.736l-9.845,34.362H483.64l-9.72-34.362l-0.125-0.49l-1.722-9.082l-0.738-3.682l-0.738-3.682l0.245,3.068
		c0,1.883,0,3.662,0,5.339c0,1.678,0.041,3.252,0.123,4.725c0,0.901,0,1.8,0,2.699c-0.165,0.656-0.246,1.104-0.246,1.351
		l-2.7,34.116H436.112z"/>
	<path d="M556.255,142.562V54.203h32.644v88.359H556.255z"/>
	<path d="M672.226,60.83l-9.817,27.367l-1.841-1.351c-3.028-1.963-5.933-3.394-8.713-4.295c-1.064-0.326-2.067-0.571-3.007-0.736
		c-0.941-0.163-1.944-0.245-3.006-0.245c-4.746,0-8.755,1.595-12.027,4.786c-3.273,3.19-4.909,7.117-4.909,11.781
		c0,3.272,0.981,6.341,2.945,9.204c3.436,4.583,7.854,6.872,13.254,6.872c4.418,0,9.53-1.636,15.34-4.909l1.964-1.104l9.695,27.858
		l-3.068,1.841c-7.691,4.337-15.791,6.504-24.299,6.504c-2.783,0-5.646-0.245-8.591-0.736c-11.781-2.044-21.292-7.281-28.533-15.708
		c-7.24-8.426-10.861-18.326-10.861-29.699c0-3.354,0.368-6.749,1.104-10.186c1.881-9.162,6.36-16.997,13.438-23.501
		c7.076-6.504,15.647-10.533,25.71-12.088c2.372-0.326,4.05-0.511,5.031-0.553c0.982-0.04,1.758-0.062,2.332-0.062
		c7.935,0,16.28,2.455,25.035,7.363L672.226,60.83z"/>
	<path d="M677.134,142.562V54.203h42.461h4.295c9.162,0,15.789,1.638,19.881,4.909c4.09,3.272,6.79,8.878,8.1,16.812
		c0.326,1.883,0.491,3.887,0.491,6.014c0,5.891-1.453,10.983-4.356,15.278c-2.905,4.296-6.811,7.222-11.72,8.774l25.035,36.571
		h-38.167l-13.376-26.999v26.999H677.134z M714.686,93.965c2.044,0,3.743-0.487,5.093-1.461c1.35-0.975,2.188-2.173,2.516-3.594
		c0.326-1.421,0.491-2.619,0.491-3.594c0-5.115-2.905-7.674-8.713-7.674h-4.295v16.322H714.686z"/>
	<path d="M761.32,98.321c0-13.154,4.56-24.122,13.683-32.906c9.122-8.782,20.842-13.176,35.16-13.176
		c6.79,0,13.377,1.186,19.758,3.556c8.916,3.268,16.015,8.782,21.292,16.544c5.277,7.763,7.916,16.424,7.916,25.982
		c0,6.211-1.228,12.217-3.682,18.018c-2.455,5.802-5.872,10.807-10.248,15.014c-4.377,4.207-9.47,7.373-15.278,9.498
		c-7.037,2.53-13.95,3.798-20.74,3.798c-13.336,0-24.648-4.431-33.933-13.298C765.962,122.486,761.32,111.475,761.32,98.321z
		 M803.413,113.722c2.209,0.982,4.499,1.473,6.873,1.473c3.436,0,6.565-0.96,9.388-2.884c2.822-1.921,4.847-4.479,6.075-7.67
		c0.736-1.964,1.104-4.05,1.104-6.259c0-3.517-0.859-6.627-2.577-9.327c-1.718-2.699-4.132-4.703-7.241-6.013
		c-2.374-0.982-4.706-1.473-6.995-1.473c-3.355,0-6.443,0.962-9.266,2.884c-2.822,1.923-4.847,4.479-6.075,7.67
		c-0.819,1.883-1.227,3.97-1.227,6.259c0,3.437,0.899,6.525,2.7,9.266C797.971,110.39,800.385,112.415,803.413,113.722z"/>
	<path d="M860.846,54.203h31.048l8.959,38.534c0.163,0.656,0.368,2.354,0.613,5.094c0.246,2.741,0.531,5.461,0.859,8.16l0.368,4.418
		l0.368-4.295c0-4.09,0.203-7.403,0.613-9.94c0.491-2.044,0.777-3.231,0.859-3.559l9.695-38.412h26.508l9.817,38.412
		c0.408,1.883,0.736,4.009,0.981,6.381c0.246,2.374,0.368,4.746,0.368,7.118l0.368,4.295c0-1.718,0.123-3.599,0.368-5.645
		c0.246-2.044,0.409-3.64,0.491-4.786l1.104-7.241l8.959-38.534h30.926l-27.735,88.359h-28.472l-7.854-37.062
		c-0.328-1.391-0.635-3.191-0.921-5.4c-0.287-2.209-0.595-5.031-0.92-8.468l-0.614-6.872l-0.245-3.313l-0.123,3.313
		c0,4.01-0.144,7.363-0.43,10.063c-0.287,2.699-0.92,6.259-1.901,10.677l-7.854,37.062H888.58L860.846,54.203z"/>
	<path d="M988.844,142.562l31.416-88.359h33.994l31.417,88.359h-35.344l-2.455-11.29h-21.23l-2.577,11.29H988.844z
		 M1044.068,108.936l-4.786-21.107l-1.104-5.032l-0.736-5.891c0,1.556-0.104,2.742-0.308,3.56c-0.205,0.818-0.389,1.638-0.552,2.454
		l-1.228,4.909l-4.786,21.107H1044.068z"/>
	<path d="M1078.552,54.203h33.135l12.026,42.584c0.326,1.31,0.531,2.169,0.613,2.577c0.654,3.273,0.982,7.038,0.982,11.291
		l0.245,4.172l0.736-9.449c0.163-1.636,0.326-3.252,0.491-4.848c0.163-1.595,0.408-2.842,0.736-3.743l11.903-42.584h33.135
		l-33.012,88.359h-27.98L1078.552,54.203z"/>
	<path d="M1173.414,142.562V54.203h66.761l-6.75,24.79h-27.367v7.363h24.667v23.808h-24.667v7.608h34.239l-7.117,24.79H1173.414z"/>
	<path d="M1319.696,60.83l-9.818,27.367l-1.841-1.351c-3.027-1.963-5.933-3.394-8.713-4.295c-1.064-0.326-2.067-0.571-3.007-0.736
		c-0.941-0.163-1.944-0.245-3.007-0.245c-4.745,0-8.755,1.595-12.026,4.786c-3.273,3.19-4.909,7.117-4.909,11.781
		c0,3.272,0.982,6.341,2.945,9.204c3.437,4.583,7.854,6.872,13.254,6.872c4.418,0,9.53-1.636,15.341-4.909l1.963-1.104l9.695,27.858
		l-3.068,1.841c-7.69,4.337-15.79,6.504-24.299,6.504c-2.782,0-5.645-0.245-8.59-0.736c-11.781-2.044-21.293-7.281-28.533-15.708
		c-7.24-8.426-10.86-18.326-10.86-29.699c0-3.354,0.368-6.749,1.104-10.186c1.881-9.162,6.36-16.997,13.438-23.501
		c7.076-6.504,15.647-10.533,25.71-12.088c2.372-0.326,4.05-0.511,5.032-0.553c0.981-0.04,1.758-0.062,2.331-0.062
		c7.935,0,16.28,2.455,25.035,7.363L1319.696,60.83z"/>
	<path d="M1316.627,142.562l31.416-88.359h33.994l31.417,88.359h-35.344l-2.455-11.29h-21.23l-2.577,11.29H1316.627z
		 M1371.852,108.936l-4.786-21.107l-1.104-5.032l-0.736-5.891c0,1.556-0.104,2.742-0.308,3.56c-0.205,0.818-0.389,1.638-0.552,2.454
		l-1.228,4.909l-4.786,21.107H1371.852z"/>
	<path d="M1407.685,142.562l14.173-88.359h32.532l10.846,37.308c0.163,0.818,0.408,2.128,0.738,3.927
		c0.327,1.801,0.575,3.519,0.74,5.154v3.068l0.734-6.873c0.325-2.617,0.653-4.375,0.979-5.276l10.655-37.308h32.452l14.085,88.359
		h-31.908l-2.822-34.116c0-1.473,0-2.884,0-4.234c0-1.35,0-2.679,0-3.988c0-0.816,0-1.431,0-1.841v-7.118l-0.353,2.455l-0.943,4.908
		l-1.649,8.836v0.736l-9.845,34.362h-22.888l-9.72-34.362l-0.124-0.49l-1.723-9.082l-0.738-3.682l-0.738-3.682l0.246,3.068
		c0,1.883,0,3.662,0,5.339c0,1.678,0.04,3.252,0.122,4.725c0,0.901,0,1.8,0,2.699c-0.165,0.656-0.245,1.104-0.245,1.351l-2.7,34.116
		H1407.685z"/>
	<path d="M1526.109,128.817c0-4.09,1.491-7.628,4.479-10.615c2.986-2.985,6.606-4.479,10.861-4.479c4.253,0,7.873,1.494,10.86,4.479
		c2.986,2.987,4.479,6.608,4.479,10.861c0,4.255-1.493,7.854-4.479,10.799c-2.987,2.945-6.607,4.418-10.86,4.418
		c-4.338,0-7.977-1.493-10.922-4.479C1527.582,136.815,1526.109,133.155,1526.109,128.817z"/>
	<path d="M1563.906,142.562V54.203h32.03l20.985,34.976c0.736,1.31,1.553,2.987,2.454,5.031c0.654,1.638,1.514,3.805,2.577,6.505
		l3.068,8.59l-1.104-4.05c-0.656-2.862-1.187-5.706-1.596-8.528c-0.41-2.823-0.613-5.379-0.613-7.671l-0.613-34.853h31.784v88.359
		h-32.521l-20.372-32.89c-1.064-1.798-2.086-3.885-3.068-6.259c-0.655-1.718-1.473-3.967-2.454-6.749l-1.718-5.4l-0.368-1.35
		l0.613,3.19c1.308,5.811,1.964,11.21,1.964,16.199l0.736,33.258H1563.906z"/>
	<path d="M1661.715,142.562V54.203h66.761l-6.75,24.79h-27.367v7.363h24.667v23.808h-24.667v7.608h34.239l-7.117,24.79H1661.715z"/>
	<path d="M1727.37,54.203h31.048l8.959,38.534c0.163,0.656,0.368,2.354,0.613,5.094c0.246,2.741,0.531,5.461,0.859,8.16l0.368,4.418
		l0.368-4.295c0-4.09,0.203-7.403,0.613-9.94c0.491-2.044,0.777-3.231,0.859-3.559l9.695-38.412h26.508l9.817,38.412
		c0.408,1.883,0.736,4.009,0.981,6.381c0.246,2.374,0.368,4.746,0.368,7.118l0.368,4.295c0-1.718,0.123-3.599,0.368-5.645
		c0.246-2.044,0.409-3.64,0.491-4.786l1.104-7.241l8.959-38.534h30.926l-27.735,88.359h-28.472l-7.854-37.062
		c-0.328-1.391-0.635-3.191-0.921-5.4c-0.287-2.209-0.595-5.031-0.92-8.468l-0.614-6.872l-0.245-3.313l-0.123,3.313
		c0,4.01-0.144,7.363-0.43,10.063c-0.287,2.699-0.92,6.259-1.901,10.677l-7.854,37.062h-28.472L1727.37,54.203z"/>
	<path d="M1860.276,134.144l8.591-26.066c1.145,1.063,2.044,1.841,2.7,2.331c0.653,0.491,2.209,1.556,4.663,3.191
		c4.826,2.782,8.241,4.377,10.247,4.786c2.004,0.41,3.701,0.613,5.093,0.613c2.209,0,3.805-0.47,4.786-1.411
		c0.982-0.939,1.473-1.982,1.473-3.13c0-1.308-0.573-2.289-1.718-2.945c-0.491-0.325-1.146-0.613-1.964-0.858
		c-0.818-0.246-2.046-0.531-3.682-0.859l-2.454-0.613l-3.19-0.859l-2.577-0.736c-6.219-1.964-11.045-5.031-14.481-9.204
		s-5.154-8.959-5.154-14.358c0-2.945,0.531-5.91,1.596-8.897c1.062-2.985,2.74-5.992,5.031-9.02
		c3.19-4.091,7.342-7.302,12.456-9.634c5.112-2.332,10.901-3.498,17.365-3.498c3.108,0,6.136,0.246,9.081,0.736
		c2.945,0.491,6.238,1.371,9.879,2.639c3.64,1.27,7.138,3.007,10.493,5.216l-7.118,22.949l-2.454-1.596
		c-3.355-2.127-6.402-3.66-9.143-4.602c-2.742-0.94-5.176-1.412-7.302-1.412c-2.62,0-4.501,0.654-5.646,1.96
		c-0.736,0.899-1.104,1.757-1.104,2.573c0,1.143,0.571,1.96,1.718,2.449c0.982,0.573,2.658,1.145,5.032,1.716l5.154,1.469
		l1.473,0.368l2.699,0.734l2.945,0.859c5.317,1.634,9.49,4.41,12.518,8.329c3.026,3.92,4.541,8.575,4.541,13.964
		c0,2.696-0.45,5.638-1.35,8.82c-2.046,7.27-6.382,13.17-13.009,17.703c-6.627,4.532-14.481,6.797-23.562,6.797
		c-6.382,0-13.091-1.264-20.126-3.787C1869.03,139.153,1864.529,136.913,1860.276,134.144z"/>
</g>
<g enable-background="new    ">
	<path d="M437.152,170.357h18.717l5.401,23.23c0.098,0.396,0.222,1.419,0.37,3.07c0.148,1.653,0.32,3.293,0.518,4.92l0.222,2.663
		l0.222-2.589c0-2.466,0.123-4.463,0.37-5.992c0.296-1.232,0.468-1.948,0.518-2.146l5.845-23.157h15.98l5.919,23.157
		c0.246,1.135,0.444,2.417,0.592,3.847c0.148,1.431,0.222,2.861,0.222,4.291l0.222,2.589c0-1.035,0.074-2.169,0.222-3.402
		c0.148-1.232,0.247-2.194,0.296-2.886l0.666-4.365l5.401-23.23h18.643l-16.72,53.268h-17.164l-4.735-22.343
		c-0.197-0.838-0.382-1.924-0.555-3.255c-0.173-1.332-0.358-3.033-0.555-5.104l-0.37-4.144l-0.148-1.997l-0.074,1.997
		c0,2.417-0.087,4.439-0.259,6.066c-0.173,1.628-0.555,3.773-1.146,6.437l-4.735,22.343h-17.164L437.152,170.357z"/>
	<path d="M519.124,223.625v-53.268h19.679v17.312h12.133v-17.312h19.753v53.268h-19.753v-18.422h-12.133v18.422H519.124z"/>
	<path d="M571.207,223.625l18.939-53.268h20.493l18.939,53.268h-21.307l-1.479-6.807h-12.799l-1.554,6.807H571.207z
		 M604.499,203.353l-2.885-12.725l-0.666-3.033l-0.444-3.551c0,0.938-0.062,1.652-0.185,2.146c-0.124,0.493-0.234,0.987-0.333,1.479
		l-0.74,2.959l-2.885,12.725H604.499z"/>
	<path d="M626.619,187.374l0.592-17.017h42.984l-4.957,17.017h-8.804v36.251h-19.679v-36.251H626.619z"/>
	<path d="M669.676,195.305c2.614-2.368,4.833-5.033,6.659-7.994l-1.48-0.52c-1.579-0.788-2.824-1.91-3.736-3.367
		c-0.913-1.456-1.369-3.048-1.369-4.775c0-2.714,0.899-4.946,2.7-6.698c1.8-1.753,3.908-2.629,6.326-2.629
		c2.515,0,4.661,0.889,6.437,2.664c2.071,2.074,3.107,4.566,3.107,7.478c0,2.418-0.74,5.06-2.219,7.922
		c-1.48,2.861-3.749,5.947-6.807,9.253l-2.367,2.369L669.676,195.305z"/>
	<path d="M690.76,218.55l5.179-15.714c0.69,0.642,1.232,1.109,1.627,1.405c0.394,0.297,1.332,0.938,2.812,1.924
		c2.909,1.678,4.968,2.64,6.177,2.886c1.208,0.247,2.231,0.37,3.07,0.37c1.332,0,2.293-0.283,2.885-0.852
		c0.592-0.566,0.888-1.195,0.888-1.887c0-0.788-0.345-1.38-1.036-1.775c-0.296-0.196-0.691-0.369-1.184-0.518
		c-0.494-0.148-1.233-0.32-2.22-0.518l-1.479-0.37l-1.923-0.518l-1.554-0.444c-3.749-1.184-6.658-3.033-8.73-5.549
		c-2.071-2.516-3.107-5.4-3.107-8.655c0-1.776,0.32-3.563,0.962-5.364c0.641-1.8,1.652-3.612,3.033-5.438
		c1.924-2.466,4.426-4.402,7.509-5.808c3.082-1.405,6.572-2.108,10.469-2.108c1.874,0,3.699,0.147,5.475,0.443
		c1.775,0.296,3.76,0.827,5.956,1.591c2.194,0.766,4.302,1.812,6.325,3.145l-4.291,13.835l-1.479-0.962
		c-2.023-1.282-3.86-2.207-5.512-2.774c-1.653-0.566-3.12-0.851-4.402-0.851c-1.579,0-2.713,0.394-3.403,1.181
		c-0.444,0.543-0.666,1.06-0.666,1.552c0,0.688,0.344,1.182,1.036,1.477c0.592,0.345,1.602,0.689,3.033,1.034l3.107,0.886
		l0.888,0.222l1.627,0.442l1.775,0.519c3.206,0.984,5.721,2.658,7.546,5.021c1.824,2.362,2.737,5.169,2.737,8.417
		c0,1.626-0.271,3.399-0.814,5.318c-1.233,4.382-3.847,7.938-7.842,10.672c-3.995,2.732-8.73,4.098-14.205,4.098
		c-3.847,0-7.892-0.762-12.133-2.283C696.037,221.569,693.324,220.219,690.76,218.55z"/>
	<path d="M804.617,174.352l-5.918,16.498l-1.11-0.813c-1.825-1.184-3.576-2.046-5.252-2.59c-0.642-0.196-1.246-0.344-1.812-0.443
		c-0.568-0.099-1.172-0.148-1.812-0.148c-2.861,0-5.278,0.962-7.25,2.886c-1.973,1.924-2.959,4.291-2.959,7.103
		c0,1.973,0.592,3.822,1.776,5.549c2.071,2.763,4.735,4.143,7.99,4.143c2.664,0,5.746-0.986,9.248-2.959l1.184-0.666l5.845,16.794
		l-1.85,1.109c-4.637,2.615-9.52,3.921-14.648,3.921c-1.677,0-3.403-0.147-5.179-0.443c-7.103-1.232-12.836-4.39-17.201-9.47
		c-4.365-5.079-6.548-11.048-6.548-17.904c0-2.021,0.222-4.068,0.666-6.14c1.134-5.523,3.834-10.247,8.101-14.168
		c4.266-3.921,9.433-6.35,15.499-7.287c1.43-0.196,2.441-0.308,3.034-0.333c0.592-0.024,1.06-0.037,1.405-0.037
		c4.784,0,9.814,1.479,15.093,4.439L804.617,174.352z"/>
	<path d="M807.058,196.954c0-7.93,2.749-14.542,8.249-19.837c5.499-5.295,12.564-7.943,21.196-7.943
		c4.093,0,8.063,0.715,11.911,2.144c5.375,1.97,9.654,5.294,12.835,9.974c3.182,4.68,4.772,9.901,4.772,15.663
		c0,3.744-0.74,7.365-2.22,10.862s-3.539,6.515-6.178,9.051s-5.709,4.444-9.21,5.726c-4.243,1.525-8.41,2.29-12.504,2.29
		c-8.04,0-14.858-2.672-20.456-8.017C809.856,211.522,807.058,204.885,807.058,196.954z M832.434,206.239
		c1.332,0.592,2.712,0.888,4.143,0.888c2.072,0,3.958-0.579,5.66-1.738c1.701-1.158,2.922-2.7,3.662-4.624
		c0.443-1.184,0.666-2.441,0.666-3.773c0-2.12-0.519-3.995-1.554-5.622c-1.036-1.628-2.491-2.836-4.365-3.625
		c-1.431-0.593-2.837-0.889-4.217-0.889c-2.022,0-3.884,0.581-5.586,1.739c-1.702,1.159-2.922,2.7-3.662,4.624
		c-0.494,1.135-0.74,2.393-0.74,3.772c0,2.071,0.542,3.934,1.627,5.586C829.153,204.23,830.608,205.451,832.434,206.239z"/>
	<path d="M870.237,196.954c0-7.93,2.749-14.542,8.249-19.837c5.499-5.295,12.564-7.943,21.196-7.943
		c4.093,0,8.063,0.715,11.911,2.144c5.375,1.97,9.654,5.294,12.835,9.974c3.182,4.68,4.772,9.901,4.772,15.663
		c0,3.744-0.74,7.365-2.22,10.862s-3.539,6.515-6.178,9.051s-5.709,4.444-9.21,5.726c-4.243,1.525-8.41,2.29-12.504,2.29
		c-8.039,0-14.858-2.672-20.456-8.017C873.036,211.522,870.237,204.885,870.237,196.954z M895.613,206.239
		c1.331,0.592,2.712,0.888,4.143,0.888c2.072,0,3.958-0.579,5.66-1.738c1.701-1.158,2.922-2.7,3.662-4.624
		c0.443-1.184,0.666-2.441,0.666-3.773c0-2.12-0.519-3.995-1.554-5.622c-1.036-1.628-2.491-2.836-4.365-3.625
		c-1.431-0.593-2.837-0.889-4.217-0.889c-2.023,0-3.885,0.581-5.586,1.739c-1.701,1.159-2.922,2.7-3.662,4.624
		c-0.493,1.135-0.74,2.393-0.74,3.772c0,2.071,0.543,3.934,1.628,5.586C892.332,204.23,893.788,205.451,895.613,206.239z"/>
	<path d="M933.935,223.625v-53.268h19.68v20.346l11.615-20.346h22.935l-18.273,26.042l17.163,27.226h-22.712l-10.728-20.641v20.641
		H933.935z"/>
	<path d="M988.681,223.625v-53.268h19.68v53.268H988.681z"/>
	<path d="M1013.686,223.625v-53.268h19.31l12.651,21.085c0.443,0.79,0.936,1.802,1.479,3.033c0.394,0.987,0.912,2.294,1.554,3.922
		l1.85,5.179l-0.666-2.441c-0.396-1.727-0.716-3.44-0.962-5.142c-0.247-1.702-0.37-3.243-0.37-4.624l-0.37-21.012h19.162v53.268
		h-19.605l-12.281-19.827c-0.642-1.084-1.258-2.342-1.85-3.773c-0.396-1.035-0.888-2.392-1.479-4.068l-1.036-3.256l-0.222-0.813
		l0.37,1.924c0.788,3.502,1.184,6.758,1.184,9.766l0.444,20.049H1013.686z"/>
	<path d="M1069.47,173.983l1.997-1.036c2.712-1.232,5.388-2.157,8.027-2.774c2.638-0.616,5.142-0.925,7.509-0.925
		c3.649,0,6.844,0.629,9.581,1.887s4.82,2.972,6.251,5.142c1.628,2.516,2.441,5.229,2.441,8.138c0,0.889-0.123,1.875-0.369,2.96
		c-0.444,1.875-1.062,3.403-1.85,4.587c-0.79,1.184-2.072,2.491-3.848,3.921l-1.405,1.035l-0.74,0.593l-1.184,1.035
		c-1.184,1.332-1.875,2.688-2.071,4.069l-0.148,0.813h-14.057l0.074-1.331c0.246-2.269,0.604-3.945,1.073-5.031
		c0.468-1.084,1.442-2.392,2.922-3.921l1.628-1.628l0.518-0.592c0.492-0.443,1.11-1.208,1.85-2.293
		c0.492-0.789,0.74-1.603,0.74-2.441c0-1.628-0.888-2.712-2.664-3.256c-0.789-0.196-1.431-0.296-1.923-0.296
		c-1.036,0-2.294,0.284-3.773,0.851c-1.479,0.568-3.157,1.443-5.03,2.627l-1.036,0.739L1069.47,173.983z M1077.163,215.339
		c0-2.563,0.899-4.722,2.701-6.474c1.8-1.75,3.958-2.626,6.473-2.626c2.516,0,4.686,0.888,6.511,2.663
		c1.824,1.775,2.737,3.946,2.737,6.511c0,2.565-0.9,4.747-2.7,6.547c-1.801,1.8-3.983,2.701-6.548,2.701s-4.734-0.914-6.51-2.737
		C1078.052,220.099,1077.163,217.904,1077.163,215.339z"/>
</g>
</svg>
