<?xml version="1.0" encoding="utf-8"?>
<!-- Generator: Adobe Illustrator 16.0.4, SVG Export Plug-In . SVG Version: 6.00 Build 0)  -->
<!DOCTYPE svg PUBLIC "-//W3C//DTD SVG 1.1//EN" "http://www.w3.org/Graphics/SVG/1.1/DTD/svg11.dtd">
<svg version="1.1" id="Layer_1" xmlns="http://www.w3.org/2000/svg" xmlns:xlink="http://www.w3.org/1999/xlink" x="0px" y="0px"
	 width="1854.186px" height="294.029px" viewBox="125.292 -153.727 1854.186 294.029"
	 enable-background="new 125.292 -153.727 1854.186 294.029" xml:space="preserve">
<g>
	<g transform="translate(0.000000,511.000000) scale(0.100000,-0.100000)">
		<path d="M2293.843,5570.805c-61.24-13.101-110.908-59.702-130.093-121.548c-5.176-17.363-5.479-36.875-5.479-361.025
			c0-324.16,0.303-343.652,5.488-361.021c18.887-61.245,69.761-109.36,129.17-121.86c31.387-6.699,1101.035-6.699,1132.725,0
			c33.516,7.002,57.578,20.713,84.087,46.924c24.98,24.976,38.687,48.438,46.914,81.035c7.007,27.109,7.007,682.739,0,709.858
			c-8.223,32.598-21.929,56.06-46.914,81.03c-26.196,26.201-50.879,39.907-84.995,46.919
			C3394.57,5577.514,2323.706,5577.514,2293.843,5570.805z M3151.758,5415.439c20.723-9.756,19.502,9.434,19.502-326.909
			c0-190.41-1.221-307.393-3.052-312.275c-1.509-4.268-7.314-10.674-12.788-14.014c-10.049-6.089-14.619-6.089-416.167-5.479
			l-406.401,0.918l-8.833,10.044l-8.838,9.761v310.142c0,281.509,0.293,310.747,4.868,317.153
			c11.274,15.845-5.786,15.239,422.559,15.542C3105.449,5420.307,3142.324,5420.004,3151.758,5415.439z M3399.751,5408.735
			c51.802-25.898,59.712-97.5,14.629-135.884c-13.11-11.567-35.962-20.117-52.715-20.117c-38.682,0-74.634,31.094-81.943,70.991
			c-7.007,39.004,20.718,81.04,61.23,92.31C3360.141,5421.215,3379.033,5419.091,3399.751,5408.735z M3398.52,5161.958
			c14.619-7.612,33.516-27.407,40.215-42.944c6.714-16.152,6.094-47.529-1.514-64.58c-7.617-17.363-25.269-35.034-41.738-42.656
			c-15.542-7.007-49.355-7.617-64.58-1.226c-31.68,13.11-51.797,43.569-51.182,77.695c0.303,23.467,5.781,37.466,21.313,54.844
			c11.27,12.188,22.544,19.81,37.788,24.678C3351.914,5172.016,3385.127,5168.969,3398.52,5161.958z M3392.436,4916.098
			c43.267-17.979,63.975-70.684,43.867-112.114c-8.54-17.979-29.551-36.875-47.837-42.949
			c-62.466-21.338-124.604,37.163-106.318,99.619c10.967,37.466,40.522,60.015,78.286,60.015
			C3372.324,4920.668,3386.347,4918.535,3392.436,4916.098z"/>
		<path d="M2407.788,5335.312c-11.572-7.002-17.969-23.457-15.537-40.518c1.826-14.619,11.577-25.894,26.196-30.166
			c7.31-2.134,117.285-2.734,331.47-2.134c319.282,0.923,320.498,0.923,329.033,7.319c19.194,14.014,19.497,47.529,0.62,63.369
			l-9.438,7.915h-326.309C2427.285,5341.098,2416.919,5340.805,2407.788,5335.312z"/>
	</g>
</g>
<circle fill="none" stroke="#231F20" stroke-width="20" stroke-miterlimit="10" cx="284.973" cy="0.968" r="101.464"/>
<text transform="matrix(1 0 0 1 438.3213 -4.437)" font-family="'OpineHeavy'" font-size="122.7213">MICROWAVECAM.NEWS</text>
<text transform="matrix(1 0 0 1 438.1875 76.6255)" font-family="'OpineHeavy'" font-size="73.9821">WHAT’S COOKIN?</text>
</svg>
